<svg width="79" height="58" viewBox="0 0 79 58" fill="none" xmlns="http://www.w3.org/2000/svg">
<rect x="19" width="33" height="58" rx="4" fill="#EC8E08"/>
<path d="M34.2188 30.5312C34.8125 31.7812 35.1094 33.0469 35.1094 34.3281C35.1094 35.5781 34.7969 36.8281 34.1719 38.0781C33.5469 39.2969 32.5312 40.3906 31.125 41.3594C29.7188 42.2969 27.9219 42.7656 25.7344 42.7656H25.4531C25.2656 42.7969 25.0781 42.8125 24.8906 42.8125H6.04688C5.20312 42.7812 4.48438 42.4844 3.89062 41.9219C3.32812 41.3281 3.03125 40.6094 3 39.7656V18.2969C3.03125 17.4531 3.32812 16.75 3.89062 16.1875C4.48438 15.5938 5.20312 15.2812 6.04688 15.25H22.1719C22.3594 15.25 22.5469 15.2656 22.7344 15.2969H23.0156C25.2031 15.3594 27 15.8594 28.4062 16.7969C29.8125 17.7344 30.8281 18.8125 31.4531 20.0312C32.0781 21.2188 32.3906 22.4219 32.3906 23.6406C32.3906 24.8906 32.0938 26.1094 31.5 27.2969C31.4688 27.3594 31.4375 27.4062 31.4062 27.4375C32.6875 28.3438 33.625 29.375 34.2188 30.5312ZM26.0156 36.5312C26.6094 36.5625 27.0938 36.4531 27.4688 36.2031C27.875 35.9531 28.1719 35.6719 28.3594 35.3594C28.5469 35.0156 28.6406 34.6719 28.6406 34.3281C28.6406 34.1094 28.5469 33.8125 28.3594 33.4375C28.1719 33.0312 27.875 32.7031 27.4688 32.4531C27.0938 32.2031 26.6094 32.0625 26.0156 32.0312H23.0156H9.32812V35.2656C9.32812 36.1094 9.76562 36.5312 10.6406 36.5312H11.0156H26.0156ZM24.7969 25.3281C25.1719 25.1094 25.4531 24.8594 25.6406 24.5781C25.8281 24.2656 25.9219 23.9531 25.9219 23.6406C25.9219 23.3281 25.8281 23.0312 25.6406 22.75C25.4531 22.4375 25.1562 22.1719 24.75 21.9531C24.375 21.7031 23.8906 21.5625 23.2969 21.5312H10.6406C9.76562 21.5312 9.32812 21.9531 9.32812 22.7969V25.75H23.2969C23.8906 25.7188 24.3906 25.5781 24.7969 25.3281ZM60.2812 15.25C62.4688 15.375 64.2656 16.2188 65.6719 17.7812C67.0781 19.3125 68.0938 21.0625 68.7188 23.0312C69.3438 25 69.6562 27.0156 69.6562 29.0781C69.6562 31.1406 69.3438 33.1562 68.7188 35.125C68.125 37.0938 67.1094 38.8594 65.6719 40.4219C64.2656 41.9531 62.4688 42.7812 60.2812 42.9062H43.0312C42.1875 42.875 41.4688 42.5781 40.875 42.0156C40.3125 41.4219 40.0156 40.7031 39.9844 39.8594V28.2344C40.0156 27.3594 40.3438 26.6406 40.9688 26.0781C41.5938 25.4844 42.3438 25.1875 43.2188 25.1875C44.0625 25.2188 44.7812 25.5312 45.375 26.125C45.9688 26.6875 46.2812 27.3906 46.3125 28.2344V35.3594C46.3125 36.2031 46.75 36.625 47.625 36.625H58.6875C59.875 36.5625 60.8594 36.1094 61.6406 35.2656C62.4219 34.4219 62.9844 33.4688 63.3281 32.4062C63.7031 31.3125 63.8906 30.2031 63.8906 29.0781C63.8906 27.9531 63.7031 26.8594 63.3281 25.7969C62.9844 24.7031 62.4219 23.7344 61.6406 22.8906C60.8594 22.0469 59.875 21.5938 58.6875 21.5312H43.0312C41.1562 21.375 40.1406 20.3594 39.9844 18.4844C39.9844 17.6094 40.2656 16.8594 40.8281 16.2344C41.4219 15.6094 42.1562 15.2812 43.0312 15.25H60.2812Z" fill="white"/>
</svg>
